<svg xmlns="http://www.w3.org/2000/svg" viewBox="0 0 64 64" fill="none">
  <!-- Shield shape -->
  <path d="M32 4 L56 16 V36 C56 50 44 58 32 62 C20 58 8 50 8 36 V16 Z" 
        fill="url(#shieldGrad)" stroke="#00f3ff" stroke-width="2"/>
  
  <!-- Inner glow -->
  <path d="M32 10 L50 20 V36 C50 47 40 53 32 56 C24 53 14 47 14 36 V20 Z" 
        fill="rgba(0,243,255,0.08)" stroke="rgba(0,243,255,0.3)" stroke-width="1"/>
  
  <!-- Atom symbol inside -->
  <circle cx="32" cy="34" r="3" fill="#00f3ff"/>
  <ellipse cx="32" cy="34" rx="12" ry="5" stroke="#00f3ff" stroke-width="1.5" transform="rotate(30 32 34)"/>
  <ellipse cx="32" cy="34" rx="12" ry="5" stroke="#00f3ff" stroke-width="1.5" transform="rotate(90 32 34)"/>
  <ellipse cx="32" cy="34" rx="12" ry="5" stroke="#00f3ff" stroke-width="1.5" transform="rotate(150 32 34)"/>
  
  <!-- Check mark at top -->
  <path d="M25 18 L30 23 L40 13" stroke="#10b981" stroke-width="3" stroke-linecap="round" stroke-linejoin="round"/>
  
  <defs>
    <linearGradient id="shieldGrad" x1="32" y1="4" x2="32" y2="62" gradientUnits="userSpaceOnUse">
      <stop offset="0%" stop-color="#0a1628"/>
      <stop offset="100%" stop-color="#0f2847"/>
    </linearGradient>
  </defs>
</svg>
